<svg width="1280" height="590" viewBox="0 0 1280 590" fill="none" xmlns="http://www.w3.org/2000/svg">
<rect x="685.466" y="-130.478" width="159.028" height="159.028" rx="18" transform="rotate(14.7519 685.466 -130.478)" fill="white" fill-opacity="0.06"/>
<rect x="1028.26" y="-40.2168" width="159.028" height="159.028" rx="18" transform="rotate(14.7519 1028.26 -40.2168)" fill="white" fill-opacity="0.06"/>
<rect x="-90.3756" y="31.7905" width="159.028" height="159.028" rx="18" transform="rotate(14.7519 -90.3756 31.7905)" fill="white" fill-opacity="0.06"/>
<rect x="252.415" y="122.052" width="159.028" height="159.028" rx="18" transform="rotate(14.7519 252.415 122.052)" fill="white" fill-opacity="0.06"/>
<rect x="595.205" y="212.312" width="159.028" height="159.028" rx="18" transform="rotate(14.7519 595.205 212.312)" fill="white" fill-opacity="0.06"/>
<rect x="937.996" y="302.574" width="159.028" height="159.028" rx="18" transform="rotate(14.7519 937.996 302.574)" fill="white" fill-opacity="0.06"/>
<rect x="1280.79" y="392.835" width="159.028" height="159.028" rx="18" transform="rotate(14.7519 1280.79 392.835)" fill="white" fill-opacity="0.06"/>
<rect x="-45.2451" y="-139.605" width="159.028" height="159.028" rx="18" transform="rotate(14.7519 -45.2451 -139.605)" fill="white" fill-opacity="0.06"/>
<rect x="297.545" y="-49.3435" width="159.028" height="159.028" rx="18" transform="rotate(14.7519 297.545 -49.3435)" fill="white" fill-opacity="0.06"/>
<rect x="640.336" y="40.9172" width="159.028" height="159.028" rx="18" transform="rotate(14.7519 640.336 40.9172)" fill="white" fill-opacity="0.06"/>
<rect x="983.126" y="131.178" width="159.028" height="159.028" rx="18" transform="rotate(14.7519 983.126 131.178)" fill="white" fill-opacity="0.06"/>
<rect x="-135.506" y="203.186" width="159.028" height="159.028" rx="18" transform="rotate(14.7519 -135.506 203.186)" fill="white" fill-opacity="0.06"/>
<rect x="207.284" y="293.447" width="159.028" height="159.028" rx="18" transform="rotate(14.7519 207.284 293.447)" fill="white" fill-opacity="0.06"/>
<rect x="550.075" y="383.708" width="159.028" height="159.028" rx="18" transform="rotate(14.7519 550.075 383.708)" fill="white" fill-opacity="0.06"/>
<rect x="892.865" y="473.969" width="159.028" height="159.028" rx="18" transform="rotate(14.7519 892.865 473.969)" fill="white" fill-opacity="0.06"/>
<rect x="1235.66" y="564.23" width="159.028" height="159.028" rx="18" transform="rotate(14.7519 1235.66 564.23)" fill="white" fill-opacity="0.06"/>
<rect x="514.071" y="-175.608" width="159.028" height="159.028" rx="18" transform="rotate(14.7519 514.071 -175.608)" fill="white" fill-opacity="0.06"/>
<rect x="856.861" y="-85.3474" width="159.028" height="159.028" rx="18" transform="rotate(14.7519 856.861 -85.3474)" fill="white" fill-opacity="0.06"/>
<rect x="1199.65" y="4.91382" width="159.028" height="159.028" rx="18" transform="rotate(14.7519 1199.65 4.91382)" fill="white" fill-opacity="0.06"/>
<rect x="81.0196" y="76.9211" width="159.028" height="159.028" rx="18" transform="rotate(14.7519 81.0196 76.9211)" fill="white" fill-opacity="0.06"/>
<rect x="423.81" y="167.182" width="159.028" height="159.028" rx="18" transform="rotate(14.7519 423.81 167.182)" fill="white" fill-opacity="0.06"/>
<rect x="766.6" y="257.443" width="159.028" height="159.028" rx="18" transform="rotate(14.7519 766.6 257.443)" fill="white" fill-opacity="0.06"/>
<rect x="1109.39" y="347.704" width="159.028" height="159.028" rx="18" transform="rotate(14.7519 1109.39 347.704)" fill="white" fill-opacity="0.06"/>
<rect x="126.15" y="-94.4741" width="159.028" height="159.028" rx="18" transform="rotate(14.7519 126.15 -94.4741)" fill="white" fill-opacity="0.06"/>
<rect x="468.94" y="-4.21289" width="159.028" height="159.028" rx="18" transform="rotate(14.7519 468.94 -4.21289)" fill="white" fill-opacity="0.06"/>
<rect x="811.731" y="86.0479" width="159.028" height="159.028" rx="18" transform="rotate(14.7519 811.731 86.0479)" fill="white" fill-opacity="0.06"/>
<rect x="1154.52" y="176.309" width="159.028" height="159.028" rx="18" transform="rotate(14.7519 1154.52 176.309)" fill="white" fill-opacity="0.06"/>
<rect x="35.889" y="248.316" width="159.028" height="159.028" rx="18" transform="rotate(14.7519 35.889 248.316)" fill="white" fill-opacity="0.06"/>
<rect x="378.679" y="338.577" width="159.028" height="159.028" rx="18" transform="rotate(14.7519 378.679 338.577)" fill="white" fill-opacity="0.06"/>
<rect x="721.47" y="428.838" width="159.028" height="159.028" rx="18" transform="rotate(14.7519 721.47 428.838)" fill="white" fill-opacity="0.06"/>
<rect x="1064.26" y="519.1" width="159.028" height="159.028" rx="18" transform="rotate(14.7519 1064.26 519.1)" fill="white" fill-opacity="0.06"/>
</svg>
